<mxfile host="app.diagrams.net" modified="2021-03-12T08:33:17.245Z" agent="5.0 (Windows NT 6.1; WOW64) AppleWebKit/537.36 (KHTML, like Gecko) Chrome/81.0.4029.3 Safari/537.36" etag="sTanakIiGlxUf4CDjOpt" version="13.6.9" type="github">
  <diagram id="H377Ig5VlcPY2WM8Qi6S" name="Page-1">
    <mxGraphModel dx="1038" dy="548" grid="1" gridSize="10" guides="1" tooltips="1" connect="1" arrows="1" fold="1" page="1" pageScale="1" pageWidth="827" pageHeight="1169" math="0" shadow="0">
      <root>
        <mxCell id="0" />
        <mxCell id="1" parent="0" />
        <mxCell id="5d2SEzOQs9S_5Yue5nxl-1" value="" style="rounded=0;whiteSpace=wrap;html=1;dashed=1;" vertex="1" parent="1">
          <mxGeometry x="33" y="230" width="120" height="130" as="geometry" />
        </mxCell>
        <mxCell id="5d2SEzOQs9S_5Yue5nxl-2" value="" style="rounded=0;whiteSpace=wrap;html=1;dashed=1;" vertex="1" parent="1">
          <mxGeometry x="164" y="230" width="170" height="130" as="geometry" />
        </mxCell>
        <mxCell id="5d2SEzOQs9S_5Yue5nxl-3" value="" style="endArrow=classic;html=1;" edge="1" parent="1">
          <mxGeometry width="50" height="50" relative="1" as="geometry">
            <mxPoint x="13" y="386" as="sourcePoint" />
            <mxPoint x="1100" y="386" as="targetPoint" />
          </mxGeometry>
        </mxCell>
        <mxCell id="5d2SEzOQs9S_5Yue5nxl-4" value="" style="rounded=0;whiteSpace=wrap;html=1;dashed=1;" vertex="1" parent="1">
          <mxGeometry x="340" y="230" width="170" height="130" as="geometry" />
        </mxCell>
        <mxCell id="5d2SEzOQs9S_5Yue5nxl-5" value="" style="rounded=0;whiteSpace=wrap;html=1;dashed=1;" vertex="1" parent="1">
          <mxGeometry x="517" y="150" width="263" height="210" as="geometry" />
        </mxCell>
        <mxCell id="5d2SEzOQs9S_5Yue5nxl-7" value="单体架构" style="text;html=1;strokeColor=none;fillColor=none;align=center;verticalAlign=middle;whiteSpace=wrap;rounded=0;" vertex="1" parent="1">
          <mxGeometry x="62" y="406" width="60" height="20" as="geometry" />
        </mxCell>
        <mxCell id="5d2SEzOQs9S_5Yue5nxl-8" value="集群架构" style="text;html=1;strokeColor=none;fillColor=none;align=center;verticalAlign=middle;whiteSpace=wrap;rounded=0;" vertex="1" parent="1">
          <mxGeometry x="222" y="406" width="60" height="20" as="geometry" />
        </mxCell>
        <mxCell id="5d2SEzOQs9S_5Yue5nxl-9" value="微服务分布式架构" style="text;html=1;strokeColor=none;fillColor=none;align=center;verticalAlign=middle;whiteSpace=wrap;rounded=0;" vertex="1" parent="1">
          <mxGeometry x="361" y="405" width="100" height="20" as="geometry" />
        </mxCell>
        <mxCell id="5d2SEzOQs9S_5Yue5nxl-10" value="SOA服务治理架构" style="text;html=1;strokeColor=none;fillColor=none;align=center;verticalAlign=middle;whiteSpace=wrap;rounded=0;" vertex="1" parent="1">
          <mxGeometry x="593.5" y="406" width="100" height="20" as="geometry" />
        </mxCell>
        <mxCell id="5d2SEzOQs9S_5Yue5nxl-11" value="" style="rounded=0;whiteSpace=wrap;html=1;dashed=1;" vertex="1" parent="1">
          <mxGeometry x="790" y="150" width="240" height="210" as="geometry" />
        </mxCell>
        <mxCell id="5d2SEzOQs9S_5Yue5nxl-12" value="service mesh" style="text;html=1;strokeColor=none;fillColor=none;align=center;verticalAlign=middle;whiteSpace=wrap;rounded=0;" vertex="1" parent="1">
          <mxGeometry x="847.5" y="405" width="100" height="20" as="geometry" />
        </mxCell>
        <mxCell id="5d2SEzOQs9S_5Yue5nxl-15" style="edgeStyle=orthogonalEdgeStyle;rounded=0;orthogonalLoop=1;jettySize=auto;html=1;entryX=0.5;entryY=0;entryDx=0;entryDy=0;" edge="1" parent="1" source="5d2SEzOQs9S_5Yue5nxl-13" target="5d2SEzOQs9S_5Yue5nxl-14">
          <mxGeometry relative="1" as="geometry" />
        </mxCell>
        <mxCell id="5d2SEzOQs9S_5Yue5nxl-13" value="app" style="ellipse;whiteSpace=wrap;html=1;fillColor=#dae8fc;strokeColor=#6c8ebf;" vertex="1" parent="1">
          <mxGeometry x="58.5" y="251" width="69" height="20" as="geometry" />
        </mxCell>
        <mxCell id="5d2SEzOQs9S_5Yue5nxl-14" value="all in" style="rounded=1;whiteSpace=wrap;html=1;fillColor=#f8cecc;strokeColor=#b85450;" vertex="1" parent="1">
          <mxGeometry x="39.5" y="305" width="107" height="45" as="geometry" />
        </mxCell>
        <mxCell id="5d2SEzOQs9S_5Yue5nxl-16" value="server" style="rounded=1;whiteSpace=wrap;html=1;fillColor=#f8cecc;strokeColor=#b85450;" vertex="1" parent="1">
          <mxGeometry x="172.5" y="306" width="44.5" height="45" as="geometry" />
        </mxCell>
        <mxCell id="5d2SEzOQs9S_5Yue5nxl-18" value="server" style="rounded=1;whiteSpace=wrap;html=1;fillColor=#f8cecc;strokeColor=#b85450;" vertex="1" parent="1">
          <mxGeometry x="228" y="306" width="44.5" height="45" as="geometry" />
        </mxCell>
        <mxCell id="5d2SEzOQs9S_5Yue5nxl-19" value="server" style="rounded=1;whiteSpace=wrap;html=1;fillColor=#f8cecc;strokeColor=#b85450;" vertex="1" parent="1">
          <mxGeometry x="282.5" y="306" width="44.5" height="45" as="geometry" />
        </mxCell>
        <mxCell id="5d2SEzOQs9S_5Yue5nxl-20" value="app" style="ellipse;whiteSpace=wrap;html=1;fillColor=#dae8fc;strokeColor=#6c8ebf;" vertex="1" parent="1">
          <mxGeometry x="215.5" y="251" width="69" height="20" as="geometry" />
        </mxCell>
        <mxCell id="5d2SEzOQs9S_5Yue5nxl-22" value="" style="endArrow=classic;html=1;entryX=0.5;entryY=0;entryDx=0;entryDy=0;exitX=0.5;exitY=1;exitDx=0;exitDy=0;" edge="1" parent="1" source="5d2SEzOQs9S_5Yue5nxl-20" target="5d2SEzOQs9S_5Yue5nxl-16">
          <mxGeometry width="50" height="50" relative="1" as="geometry">
            <mxPoint x="307" y="90" as="sourcePoint" />
            <mxPoint x="277" y="140" as="targetPoint" />
          </mxGeometry>
        </mxCell>
        <mxCell id="5d2SEzOQs9S_5Yue5nxl-23" value="" style="endArrow=classic;html=1;entryX=0.5;entryY=0;entryDx=0;entryDy=0;" edge="1" parent="1" target="5d2SEzOQs9S_5Yue5nxl-18">
          <mxGeometry width="50" height="50" relative="1" as="geometry">
            <mxPoint x="250" y="270" as="sourcePoint" />
            <mxPoint x="204.75" y="316" as="targetPoint" />
          </mxGeometry>
        </mxCell>
        <mxCell id="5d2SEzOQs9S_5Yue5nxl-24" value="" style="endArrow=classic;html=1;entryX=0.5;entryY=0;entryDx=0;entryDy=0;exitX=0.5;exitY=1;exitDx=0;exitDy=0;" edge="1" parent="1" source="5d2SEzOQs9S_5Yue5nxl-20" target="5d2SEzOQs9S_5Yue5nxl-19">
          <mxGeometry width="50" height="50" relative="1" as="geometry">
            <mxPoint x="260" y="280" as="sourcePoint" />
            <mxPoint x="260.25" y="316" as="targetPoint" />
          </mxGeometry>
        </mxCell>
        <mxCell id="5d2SEzOQs9S_5Yue5nxl-25" value="serverA" style="rounded=1;whiteSpace=wrap;html=1;fillColor=#f8cecc;strokeColor=#b85450;" vertex="1" parent="1">
          <mxGeometry x="350" y="306" width="44.5" height="45" as="geometry" />
        </mxCell>
        <mxCell id="5d2SEzOQs9S_5Yue5nxl-26" value="serverB" style="rounded=1;whiteSpace=wrap;html=1;fillColor=#fff2cc;strokeColor=#d6b656;" vertex="1" parent="1">
          <mxGeometry x="405.5" y="306" width="44.5" height="45" as="geometry" />
        </mxCell>
        <mxCell id="5d2SEzOQs9S_5Yue5nxl-27" value="serverC" style="rounded=1;whiteSpace=wrap;html=1;fillColor=#d5e8d4;strokeColor=#82b366;" vertex="1" parent="1">
          <mxGeometry x="460" y="306" width="44.5" height="45" as="geometry" />
        </mxCell>
        <mxCell id="5d2SEzOQs9S_5Yue5nxl-28" value="app" style="ellipse;whiteSpace=wrap;html=1;fillColor=#dae8fc;strokeColor=#6c8ebf;" vertex="1" parent="1">
          <mxGeometry x="393" y="251" width="69" height="20" as="geometry" />
        </mxCell>
        <mxCell id="5d2SEzOQs9S_5Yue5nxl-29" value="" style="endArrow=classic;html=1;entryX=0.5;entryY=0;entryDx=0;entryDy=0;exitX=0.5;exitY=1;exitDx=0;exitDy=0;" edge="1" parent="1" source="5d2SEzOQs9S_5Yue5nxl-28" target="5d2SEzOQs9S_5Yue5nxl-25">
          <mxGeometry width="50" height="50" relative="1" as="geometry">
            <mxPoint x="484.5" y="90" as="sourcePoint" />
            <mxPoint x="454.5" y="140" as="targetPoint" />
          </mxGeometry>
        </mxCell>
        <mxCell id="5d2SEzOQs9S_5Yue5nxl-30" value="" style="endArrow=classic;html=1;entryX=0.5;entryY=0;entryDx=0;entryDy=0;" edge="1" parent="1" target="5d2SEzOQs9S_5Yue5nxl-26">
          <mxGeometry width="50" height="50" relative="1" as="geometry">
            <mxPoint x="427.5" y="270" as="sourcePoint" />
            <mxPoint x="382.25" y="316" as="targetPoint" />
          </mxGeometry>
        </mxCell>
        <mxCell id="5d2SEzOQs9S_5Yue5nxl-31" value="" style="endArrow=classic;html=1;entryX=0.5;entryY=0;entryDx=0;entryDy=0;exitX=0.5;exitY=1;exitDx=0;exitDy=0;" edge="1" parent="1" source="5d2SEzOQs9S_5Yue5nxl-28" target="5d2SEzOQs9S_5Yue5nxl-27">
          <mxGeometry width="50" height="50" relative="1" as="geometry">
            <mxPoint x="437.5" y="280" as="sourcePoint" />
            <mxPoint x="437.75" y="316" as="targetPoint" />
          </mxGeometry>
        </mxCell>
        <mxCell id="5d2SEzOQs9S_5Yue5nxl-32" value="serverA" style="rounded=1;whiteSpace=wrap;html=1;fillColor=#f8cecc;strokeColor=#b85450;" vertex="1" parent="1">
          <mxGeometry x="541" y="306" width="44.5" height="45" as="geometry" />
        </mxCell>
        <mxCell id="5d2SEzOQs9S_5Yue5nxl-33" value="serverB" style="rounded=1;whiteSpace=wrap;html=1;fillColor=#fff2cc;strokeColor=#d6b656;" vertex="1" parent="1">
          <mxGeometry x="619.75" y="306" width="44.5" height="45" as="geometry" />
        </mxCell>
        <mxCell id="5d2SEzOQs9S_5Yue5nxl-34" value="serverC" style="rounded=1;whiteSpace=wrap;html=1;fillColor=#d5e8d4;strokeColor=#82b366;" vertex="1" parent="1">
          <mxGeometry x="709" y="306" width="44.5" height="45" as="geometry" />
        </mxCell>
        <mxCell id="5d2SEzOQs9S_5Yue5nxl-35" value="app" style="ellipse;whiteSpace=wrap;html=1;fillColor=#dae8fc;strokeColor=#6c8ebf;" vertex="1" parent="1">
          <mxGeometry x="607.5" y="166" width="69" height="20" as="geometry" />
        </mxCell>
        <mxCell id="5d2SEzOQs9S_5Yue5nxl-39" value="&lt;font style=&quot;font-size: 13px;&quot;&gt;注册中心&lt;/font&gt;" style="ellipse;whiteSpace=wrap;html=1;aspect=fixed;rounded=1;fillColor=#f5f5f5;strokeColor=#666666;fontColor=#333333;fontSize=13;" vertex="1" parent="1">
          <mxGeometry x="622.5" y="220" width="39" height="39" as="geometry" />
        </mxCell>
        <mxCell id="5d2SEzOQs9S_5Yue5nxl-43" value="monitor" style="rounded=1;whiteSpace=wrap;html=1;fillColor=#f5f5f5;strokeColor=#666666;fontColor=#333333;" vertex="1" parent="1">
          <mxGeometry x="699" y="206" width="44.5" height="45" as="geometry" />
        </mxCell>
        <mxCell id="5d2SEzOQs9S_5Yue5nxl-44" value="config" style="rounded=1;whiteSpace=wrap;html=1;fillColor=#f5f5f5;strokeColor=#666666;fontColor=#333333;" vertex="1" parent="1">
          <mxGeometry x="549" y="206" width="44.5" height="45" as="geometry" />
        </mxCell>
        <mxCell id="5d2SEzOQs9S_5Yue5nxl-46" value="熔断/降级/过滤" style="rounded=1;whiteSpace=wrap;html=1;fillColor=#f5f5f5;strokeColor=#666666;fontColor=#333333;opacity=60;" vertex="1" parent="1">
          <mxGeometry x="556.5" y="271" width="171" height="20" as="geometry" />
        </mxCell>
        <mxCell id="5d2SEzOQs9S_5Yue5nxl-48" value="" style="endArrow=classic;startArrow=classic;html=1;fontSize=13;exitX=0.5;exitY=0;exitDx=0;exitDy=0;entryX=0.5;entryY=1;entryDx=0;entryDy=0;" edge="1" parent="1" source="5d2SEzOQs9S_5Yue5nxl-39" target="5d2SEzOQs9S_5Yue5nxl-35">
          <mxGeometry width="50" height="50" relative="1" as="geometry">
            <mxPoint x="638" y="90" as="sourcePoint" />
            <mxPoint x="688" y="40" as="targetPoint" />
          </mxGeometry>
        </mxCell>
        <mxCell id="5d2SEzOQs9S_5Yue5nxl-49" value="" style="endArrow=classic;startArrow=classic;html=1;fontSize=13;exitX=1;exitY=0.5;exitDx=0;exitDy=0;entryX=0;entryY=0.5;entryDx=0;entryDy=0;" edge="1" parent="1" source="5d2SEzOQs9S_5Yue5nxl-39" target="5d2SEzOQs9S_5Yue5nxl-43">
          <mxGeometry width="50" height="50" relative="1" as="geometry">
            <mxPoint x="652" y="230" as="sourcePoint" />
            <mxPoint x="652" y="196" as="targetPoint" />
          </mxGeometry>
        </mxCell>
        <mxCell id="5d2SEzOQs9S_5Yue5nxl-50" value="" style="endArrow=classic;startArrow=classic;html=1;fontSize=13;exitX=0;exitY=0.5;exitDx=0;exitDy=0;entryX=1;entryY=0.5;entryDx=0;entryDy=0;" edge="1" parent="1" source="5d2SEzOQs9S_5Yue5nxl-39" target="5d2SEzOQs9S_5Yue5nxl-44">
          <mxGeometry width="50" height="50" relative="1" as="geometry">
            <mxPoint x="662" y="240" as="sourcePoint" />
            <mxPoint x="662" y="206" as="targetPoint" />
          </mxGeometry>
        </mxCell>
        <mxCell id="5d2SEzOQs9S_5Yue5nxl-51" value="" style="endArrow=classic;startArrow=classic;html=1;fontSize=13;exitX=0;exitY=0;exitDx=0;exitDy=0;entryX=1;entryY=1;entryDx=0;entryDy=0;" edge="1" parent="1" source="5d2SEzOQs9S_5Yue5nxl-34" target="5d2SEzOQs9S_5Yue5nxl-39">
          <mxGeometry width="50" height="50" relative="1" as="geometry">
            <mxPoint x="672" y="250" as="sourcePoint" />
            <mxPoint x="672" y="216" as="targetPoint" />
          </mxGeometry>
        </mxCell>
        <mxCell id="5d2SEzOQs9S_5Yue5nxl-52" value="" style="endArrow=classic;startArrow=classic;html=1;fontSize=13;exitX=0.5;exitY=0;exitDx=0;exitDy=0;entryX=0.5;entryY=1;entryDx=0;entryDy=0;" edge="1" parent="1" source="5d2SEzOQs9S_5Yue5nxl-33" target="5d2SEzOQs9S_5Yue5nxl-39">
          <mxGeometry width="50" height="50" relative="1" as="geometry">
            <mxPoint x="682" y="260" as="sourcePoint" />
            <mxPoint x="682" y="226" as="targetPoint" />
          </mxGeometry>
        </mxCell>
        <mxCell id="5d2SEzOQs9S_5Yue5nxl-53" value="" style="endArrow=classic;startArrow=classic;html=1;fontSize=13;exitX=0.75;exitY=0;exitDx=0;exitDy=0;entryX=0;entryY=1;entryDx=0;entryDy=0;" edge="1" parent="1" source="5d2SEzOQs9S_5Yue5nxl-32" target="5d2SEzOQs9S_5Yue5nxl-39">
          <mxGeometry width="50" height="50" relative="1" as="geometry">
            <mxPoint x="692" y="270" as="sourcePoint" />
            <mxPoint x="692" y="236" as="targetPoint" />
          </mxGeometry>
        </mxCell>
        <mxCell id="5d2SEzOQs9S_5Yue5nxl-55" value="" style="endArrow=none;dashed=1;html=1;fontSize=13;entryX=0;entryY=0.5;entryDx=0;entryDy=0;exitX=0.5;exitY=0;exitDx=0;exitDy=0;" edge="1" parent="1" source="5d2SEzOQs9S_5Yue5nxl-44" target="5d2SEzOQs9S_5Yue5nxl-35">
          <mxGeometry width="50" height="50" relative="1" as="geometry">
            <mxPoint x="330" y="100" as="sourcePoint" />
            <mxPoint x="380" y="50" as="targetPoint" />
            <Array as="points">
              <mxPoint x="580" y="190" />
            </Array>
          </mxGeometry>
        </mxCell>
        <mxCell id="5d2SEzOQs9S_5Yue5nxl-56" value="" style="endArrow=none;dashed=1;html=1;fontSize=13;entryX=0.25;entryY=0;entryDx=0;entryDy=0;exitX=1;exitY=0.5;exitDx=0;exitDy=0;" edge="1" parent="1" source="5d2SEzOQs9S_5Yue5nxl-35" target="5d2SEzOQs9S_5Yue5nxl-43">
          <mxGeometry width="50" height="50" relative="1" as="geometry">
            <mxPoint x="581.25" y="216" as="sourcePoint" />
            <mxPoint x="617.5" y="186" as="targetPoint" />
            <Array as="points">
              <mxPoint x="700" y="190" />
            </Array>
          </mxGeometry>
        </mxCell>
        <mxCell id="5d2SEzOQs9S_5Yue5nxl-57" value="" style="endArrow=none;dashed=1;html=1;fontSize=13;entryX=0;entryY=1;entryDx=0;entryDy=0;exitX=0;exitY=0;exitDx=0;exitDy=0;" edge="1" parent="1" source="5d2SEzOQs9S_5Yue5nxl-32" target="5d2SEzOQs9S_5Yue5nxl-44">
          <mxGeometry width="50" height="50" relative="1" as="geometry">
            <mxPoint x="581.25" y="216" as="sourcePoint" />
            <mxPoint x="617.5" y="186" as="targetPoint" />
            <Array as="points">
              <mxPoint x="541" y="280" />
            </Array>
          </mxGeometry>
        </mxCell>
        <mxCell id="5d2SEzOQs9S_5Yue5nxl-58" value="" style="endArrow=none;dashed=1;html=1;fontSize=13;exitX=0;exitY=1;exitDx=0;exitDy=0;" edge="1" parent="1" source="5d2SEzOQs9S_5Yue5nxl-33">
          <mxGeometry width="50" height="50" relative="1" as="geometry">
            <mxPoint x="551" y="316" as="sourcePoint" />
            <mxPoint x="580" y="351" as="targetPoint" />
            <Array as="points" />
          </mxGeometry>
        </mxCell>
        <mxCell id="5d2SEzOQs9S_5Yue5nxl-59" value="" style="endArrow=none;dashed=1;html=1;fontSize=13;exitX=0;exitY=1;exitDx=0;exitDy=0;entryX=1;entryY=1;entryDx=0;entryDy=0;" edge="1" parent="1" source="5d2SEzOQs9S_5Yue5nxl-34" target="5d2SEzOQs9S_5Yue5nxl-33">
          <mxGeometry width="50" height="50" relative="1" as="geometry">
            <mxPoint x="629.75" y="361" as="sourcePoint" />
            <mxPoint x="590" y="361" as="targetPoint" />
            <Array as="points" />
          </mxGeometry>
        </mxCell>
        <mxCell id="5d2SEzOQs9S_5Yue5nxl-60" value="" style="endArrow=none;dashed=1;html=1;fontSize=13;exitX=1;exitY=1;exitDx=0;exitDy=0;entryX=1;entryY=0;entryDx=0;entryDy=0;" edge="1" parent="1" source="5d2SEzOQs9S_5Yue5nxl-43" target="5d2SEzOQs9S_5Yue5nxl-34">
          <mxGeometry width="50" height="50" relative="1" as="geometry">
            <mxPoint x="719" y="361" as="sourcePoint" />
            <mxPoint x="674.25" y="361" as="targetPoint" />
            <Array as="points">
              <mxPoint x="754" y="280" />
            </Array>
          </mxGeometry>
        </mxCell>
        <mxCell id="5d2SEzOQs9S_5Yue5nxl-61" value="" style="rounded=0;whiteSpace=wrap;html=1;fontSize=13;opacity=60;" vertex="1" parent="1">
          <mxGeometry x="800" y="270" width="62" height="80" as="geometry" />
        </mxCell>
        <mxCell id="5d2SEzOQs9S_5Yue5nxl-62" value="" style="rounded=0;whiteSpace=wrap;html=1;fontSize=13;opacity=60;" vertex="1" parent="1">
          <mxGeometry x="879" y="270" width="62" height="80" as="geometry" />
        </mxCell>
        <mxCell id="5d2SEzOQs9S_5Yue5nxl-63" value="" style="rounded=0;whiteSpace=wrap;html=1;fontSize=13;opacity=60;" vertex="1" parent="1">
          <mxGeometry x="960" y="270" width="62" height="80" as="geometry" />
        </mxCell>
      </root>
    </mxGraphModel>
  </diagram>
</mxfile>
